# ProBuilder 6.0.5
# https://unity3d.com/unity/features/worldbuilding/probuilder
# 5/11/2025 1:24:07 AM

mtllib ./RenderTexProj.mtl
o RenderTexProj

g RenderTexProj
v 1.006519 -0.007388016 10.02
v 1.006519 1.74441 10.02
v 0.01536113 -0.007388016 10.02
v 0.01536113 1.74441 10.02
v 1.006519 3.496209 10.02
v 0.01536113 3.496209 10.02
v -0.9757969 -0.007388016 10.02
v -0.9757969 1.74441 10.02
v -0.9757969 3.496209 10.02

vt -0.954843 -1.169388
vt -0.954843 0.5824104
vt 0.03631496 -1.169388
vt 0.03631496 0.5824104
vt -0.954843 2.334208
vt 0.03631496 2.334208
vt 1.027473 -1.169388
vt 1.027473 0.5824104
vt 1.027473 2.334208

vn 0 -1.192093E-07 -1

usemtl RenderTexture
f 3/3/1 4/4/1 2/2/1 1/1/1
f 4/4/1 6/6/1 5/5/1 2/2/1
f 7/7/1 8/8/1 4/4/1 3/3/1
f 8/8/1 9/9/1 6/6/1 4/4/1

